<svg width="206" height="146" viewBox="0 0 206 146" fill="none" xmlns="http://www.w3.org/2000/svg">
<path d="M3.62562 7.81933L1.41487e-05 1.81923C4.75633 1.21337 9.55559 0.209923 14.3746 0.0575542C29.9955 -0.435208 45.2515 2.30353 60.3884 5.73109C70.7889 8.08657 81.1518 10.6153 90.7846 15.3701C101.706 20.7629 111.404 27.6597 118.472 37.8239C118.904 38.4468 120.13 38.7435 121.011 38.7916C128.123 39.1793 135.315 38.9438 142.34 39.9025C157.015 41.9053 169.111 49.3892 179.62 59.3786C201.082 79.7803 208.049 105.118 204.008 134.029C203.548 137.315 203.078 140.603 202.469 143.864C202.338 144.565 201.584 145.153 201.115 145.792C200.655 145.147 199.825 144.519 199.796 143.852C199.636 140.187 199.494 136.507 199.674 132.845C200.241 121.239 199.522 109.769 196.51 98.53C190.332 75.4712 176.534 58.6474 154.913 48.5225C144.632 43.7074 133.56 42.9487 122.064 43.6114C123.168 46.4828 124.256 49.0535 125.151 51.6905C128.049 60.2187 128.983 68.9609 127.61 77.9166C126.881 82.6791 125.27 87.1259 122.758 91.2568C118.937 97.5419 113.287 100.624 106.035 100.729C94.6272 100.896 83.449 92.9547 79.3174 81.8685C75.0023 70.2907 77.9897 58.6351 87.2096 50.6319C93.2743 45.3683 100.422 42.4704 108.085 40.6073C108.716 40.4536 109.35 40.3149 109.978 40.1522C110.11 40.117 110.224 40.0114 110.621 39.7713C109.341 38.2868 108.172 36.7611 106.834 35.405C99.6065 28.0741 91.0807 22.5699 81.5755 18.7969C60.1027 10.2761 37.7026 5.86925 14.589 5.14068C11.1621 5.03274 7.69505 5.63648 4.26856 6.07591M91.5276 54.147C83.4695 62.0367 81.2162 70.1891 84.4522 79.3443C87.7012 88.54 94.4949 93.9258 104.24 95.1262C111.772 96.0546 116.887 92.8333 119.742 85.7939C120.363 84.2612 120.952 82.6745 121.241 81.0579C123.476 68.5084 120.822 56.8616 114.677 45.9127C114.419 45.4507 113.527 44.9958 113.017 45.0784C104.611 46.438 96.8346 49.2622 91.5306 54.147L91.5276 54.147Z" fill="#DB3D51"/>
</svg>
